# xmcd
# 
# Track frame offsets:
#     150
#     22635
#     39212
#     67892
#     84225
#     108037
#     136875
#     156607
#     179517
# 
# Disc length: 2673
# 
# Revision: 3
# Processed by: cddbd v1.5.2PL0 Copyright (c) Steve Scherf et al.
# Submitted via: BonkEnc v1.0.8
# 
DISCID=600a6f09
DTITLE=Alphonze Mouzon - The Essence Of Mystery
DYEAR=1972
DGENRE=Fusion
TTITLE0=The Essence Of Mystery
TTITLE1=Funky Finger
TTITLE2=Crying Angels
TTITLE3=Why Can't We Make It
TTITLE4=Macrobian
TTITLE5=Spring Water
TTITLE6=Sunflower
TTITLE7=Thank You Load
TTITLE8=Antonia
EXTD=
EXTT0=
EXTT1=
EXTT2=
EXTT3=
EXTT4=
EXTT5=
EXTT6=
EXTT7=
EXTT8=
PLAYORDER=
